<svg width="353" height="8" viewBox="0 0 353 8" fill="none" xmlns="http://www.w3.org/2000/svg">
<path d="M352.354 4.35355C352.549 4.15829 352.549 3.84171 352.354 3.64645L349.172 0.464466C348.976 0.269204 348.66 0.269204 348.465 0.464466C348.269 0.659728 348.269 0.976311 348.465 1.17157L351.293 4L348.465 6.82843C348.269 7.02369 348.269 7.34027 348.465 7.53553C348.66 7.7308 348.976 7.7308 349.172 7.53553L352.354 4.35355ZM0.646508 3.64645C0.451245 3.84171 0.451245 4.15829 0.646508 4.35355L3.82849 7.53553C4.02375 7.7308 4.34033 7.7308 4.53559 7.53553C4.73086 7.34027 4.73086 7.02369 4.53559 6.82843L1.70717 4L4.53559 1.17157C4.73086 0.976311 4.73086 0.659728 4.53559 0.464466C4.34033 0.269204 4.02375 0.269204 3.82849 0.464466L0.646508 3.64645ZM321 4.5H352V3.5H321V4.5ZM32.0001 3.5H1.00006V4.5H32.0001V3.5Z" fill="black"/>
</svg>
